<svg width="27" height="27" viewBox="0 0 27 27" fill="none" xmlns="http://www.w3.org/2000/svg">
<path d="M25.92 0H1.08C0.482625 0 0 0.482625 0 1.08V25.92C0 26.5174 0.482625 27 1.08 27H25.92C26.5174 27 27 26.5174 27 25.92V1.08C27 0.482625 26.5174 0 25.92 0ZM8.00887 23.0074H4.00275V10.1216H8.00887V23.0074ZM6.0075 8.35988C5.54825 8.35988 5.09932 8.22369 4.71747 7.96855C4.33562 7.7134 4.038 7.35076 3.86225 6.92647C3.68651 6.50218 3.64052 6.0353 3.73012 5.58488C3.81971 5.13445 4.04086 4.72071 4.3656 4.39597C4.69034 4.07124 5.10408 3.85009 5.5545 3.76049C6.00492 3.6709 6.4718 3.71688 6.89609 3.89263C7.32038 4.06837 7.68303 4.36599 7.93817 4.74784C8.19332 5.12969 8.3295 5.57863 8.3295 6.03788C8.32613 7.32037 7.28663 8.35988 6.0075 8.35988ZM23.0074 23.0074H19.0046V16.74C19.0046 15.2449 18.9776 13.3245 16.9223 13.3245C14.8399 13.3245 14.5193 14.9513 14.5193 16.632V23.0074H10.5199V10.1216H14.3606V11.8834H14.4146C14.9479 10.8709 16.254 9.801 18.2048 9.801C22.2615 9.801 23.0074 12.4706 23.0074 15.9401V23.0074Z" fill="white"/>
</svg>
