<svg width="27" height="22" viewBox="0 0 27 22" fill="none" xmlns="http://www.w3.org/2000/svg">
<path d="M27 2.61333C26.0071 3.04291 24.9266 3.35208 23.8136 3.4725C24.9691 2.78397 25.8344 1.69622 26.2472 0.413327C25.1629 1.06027 23.975 1.51392 22.7363 1.75415C22.2186 1.19903 21.5924 0.756799 20.8969 0.455008C20.2013 0.153216 19.4512 -0.00166557 18.6933 1.35072e-05C15.627 1.35072e-05 13.1609 2.49291 13.1609 5.55208C13.1609 5.98167 13.2128 6.41125 13.2972 6.82457C8.70581 6.58374 4.61086 4.38374 1.88848 1.0154C1.39243 1.86518 1.13248 2.83276 1.13568 3.81747C1.13568 5.74409 2.11237 7.44291 3.60173 8.44202C2.72403 8.40735 1.86687 8.16539 1.09999 7.73581V7.80415C1.09999 10.5021 3.00144 12.7379 5.53563 13.2521C5.05981 13.376 4.57033 13.4395 4.07872 13.4408C3.71854 13.4408 3.37784 13.405 3.03389 13.3562C3.73477 15.5562 5.77575 17.1541 8.20611 17.2062C6.30465 18.7 3.92297 19.5787 1.33686 19.5787C0.872852 19.5787 0.444538 19.5624 0 19.5104C2.45307 21.0888 5.36366 22 8.49814 22C18.6738 22 24.2419 13.545 24.2419 6.20622C24.2419 5.96539 24.2419 5.72457 24.2257 5.48374C25.303 4.69291 26.2472 3.71333 27 2.61333Z" fill="white"/>
</svg>
